<svg width="105" height="88" viewBox="0 0 105 88" fill="none" xmlns="http://www.w3.org/2000/svg">
<path d="M1.07129 20.2223C1.07129 17.9738 1.07168 16.3176 1.17862 15.0086C1.28509 13.7055 1.49467 12.7908 1.88874 12.0174C2.60779 10.6062 3.75514 9.45881 5.16636 8.73976C5.93977 8.34569 6.85452 8.13611 8.15762 8.02964C9.46655 7.9227 11.1228 7.92231 13.3713 7.92231H82.7713C85.0197 7.92231 86.676 7.9227 87.985 8.02964C89.2881 8.13611 90.2028 8.34569 90.9762 8.73976C92.3874 9.45881 93.5348 10.6062 94.2538 12.0174C94.6479 12.7908 94.8575 13.7055 94.964 15.0086C95.0709 16.3176 95.0713 17.9738 95.0713 20.2223V66.6223C95.0713 68.8708 95.0709 70.527 94.964 71.836C94.8575 73.1391 94.6479 74.0538 94.2538 74.8272C93.5348 76.2385 92.3874 77.3858 90.9762 78.1049C90.2028 78.4989 89.2881 78.7085 87.985 78.815C86.676 78.9219 85.0197 78.9223 82.7713 78.9223H13.3713C11.1228 78.9223 9.46656 78.9219 8.15762 78.815C6.85453 78.7085 5.93977 78.4989 5.16636 78.1049C3.75514 77.3858 2.60779 76.2385 1.88874 74.8272C1.49467 74.0538 1.28509 73.1391 1.17862 71.836C1.07168 70.527 1.07129 68.8708 1.07129 66.6223V20.2223Z" fill="white"/>
<path d="M1.07129 20.2223C1.07129 17.9738 1.07168 16.3176 1.17862 15.0086C1.28509 13.7055 1.49467 12.7908 1.88874 12.0174C2.60779 10.6062 3.75514 9.45881 5.16636 8.73976C5.93977 8.34569 6.85452 8.13611 8.15762 8.02964C9.46655 7.9227 11.1228 7.92231 13.3713 7.92231H82.7713C85.0197 7.92231 86.676 7.9227 87.985 8.02964C89.2881 8.13611 90.2028 8.34569 90.9762 8.73976C92.3874 9.45881 93.5348 10.6062 94.2538 12.0174C94.6479 12.7908 94.8575 13.7055 94.964 15.0086C95.0709 16.3176 95.0713 17.9738 95.0713 20.2223V66.6223C95.0713 68.8708 95.0709 70.527 94.964 71.836C94.8575 73.1391 94.6479 74.0538 94.2538 74.8272C93.5348 76.2385 92.3874 77.3858 90.9762 78.1049C90.2028 78.4989 89.2881 78.7085 87.985 78.815C86.676 78.9219 85.0197 78.9223 82.7713 78.9223H13.3713C11.1228 78.9223 9.46656 78.9219 8.15762 78.815C6.85453 78.7085 5.93977 78.4989 5.16636 78.1049C3.75514 77.3858 2.60779 76.2385 1.88874 74.8272C1.49467 74.0538 1.28509 73.1391 1.17862 71.836C1.07168 70.527 1.07129 68.8708 1.07129 66.6223V20.2223Z" stroke="#EEEEEE"/>
<rect x="9.57129" y="17.4223" width="71" height="3" rx="1.5" fill="#DAE4EC"/>
<path d="M9.57129 28.3059C9.57129 27.2859 9.57129 26.7759 9.77294 26.3877C9.94286 26.0606 10.2096 25.7939 10.5367 25.624C10.9249 25.4223 11.4349 25.4223 12.4549 25.4223H28.8213V34.4223H9.57129V28.3059Z" stroke="#EDF2F6" stroke-width="0.895522"/>
<rect x="10.6707" y="28.4379" width="11.55" height="4.02" rx="1.79104" fill="#F1DECF"/>
<path d="M48.0713 25.4223H28.8213V34.4223H48.0713V25.4223Z" stroke="#EDF2F6" stroke-width="0.895522"/>
<rect width="14.3" height="4.02" rx="1.79104" transform="matrix(-1 0 0 1 44.222 28.4379)" fill="#F1DECF"/>
<path d="M67.3213 25.4223H48.0713V34.4223H67.3213V25.4223Z" stroke="#EDF2F6" stroke-width="0.895522"/>
<path d="M63.472 30.4473C63.472 30.2436 63.472 30.1417 63.4638 30.0559C63.3814 29.2033 62.7067 28.5286 61.8541 28.4462C61.7683 28.4379 61.6664 28.4379 61.4626 28.4379H51.182C50.9787 28.4379 50.877 28.4379 50.7914 28.4462C49.938 28.5284 49.2625 29.2039 49.1803 30.0573C49.172 30.1429 49.172 30.2446 49.172 30.4479C49.172 30.6513 49.172 30.7529 49.1803 30.8386C49.2625 31.692 49.938 32.3675 50.7914 32.4497C50.877 32.4579 50.9787 32.4579 51.182 32.4579H61.4615C61.6653 32.4579 61.7673 32.4579 61.8532 32.4496C62.7062 32.3673 63.3814 31.6921 63.4638 30.8391C63.472 30.7532 63.472 30.6512 63.472 30.4473Z" fill="#F1DECF"/>
<path d="M86.5713 28.3059C86.5713 27.2859 86.5713 26.7759 86.3696 26.3877C86.1997 26.0606 85.933 25.7939 85.6059 25.624C85.2177 25.4223 84.7077 25.4223 83.6877 25.4223H67.3213V34.4223H86.5713V28.3059Z" stroke="#EDF2F6" stroke-width="0.895522"/>
<rect width="14.3" height="4.02" rx="1.79104" transform="matrix(-1 0 0 1 82.722 28.4379)" fill="#F1DECF"/>
<rect x="9.57129" y="34.4223" width="19.25" height="9" stroke="#EDF2F6" stroke-width="0.895522"/>
<rect x="11.0713" y="37.4223" width="9" height="4" rx="1.79104" fill="#DAE4EC"/>
<rect width="19.25" height="9" transform="matrix(-1 0 0 1 48.0713 34.4223)" stroke="#EDF2F6" stroke-width="0.895522"/>
<rect width="9.35" height="4.02" rx="1.79104" transform="matrix(-1 0 0 1 40.2705 37.4379)" fill="#DAE4EC"/>
<rect width="19.25" height="9" transform="matrix(-1 0 0 1 67.3213 34.4223)" stroke="#EDF2F6" stroke-width="0.895522"/>
<rect width="11" height="4" rx="1.79104" transform="matrix(-1 0 0 1 60.0713 37.4223)" fill="#DAE4EC"/>
<rect width="19.25" height="9" transform="matrix(-1 0 0 1 86.5713 34.4223)" stroke="#EDF2F6" stroke-width="0.895522"/>
<rect width="9.35" height="4.02" rx="1.79104" transform="matrix(-1 0 0 1 77.7706 37.4379)" fill="#DAE4EC"/>
<rect x="9.57129" y="43.4223" width="19.25" height="9" stroke="#EDF2F6" stroke-width="0.895522"/>
<rect x="10.6707" y="46.4379" width="9" height="4.02" rx="1.79104" fill="#DAE4EC"/>
<rect width="19.25" height="9" transform="matrix(-1 0 0 1 48.0713 43.4223)" stroke="#EDF2F6" stroke-width="0.895522"/>
<rect width="9.35" height="4.02" rx="1.79104" transform="matrix(-1 0 0 1 40.2705 46.4379)" fill="#DAE4EC"/>
<rect width="19.25" height="9" transform="matrix(-1 0 0 1 67.3213 43.4223)" stroke="#EDF2F6" stroke-width="0.895522"/>
<rect width="11" height="4" rx="1.79104" transform="matrix(-1 0 0 1 60.0713 46.4223)" fill="#DAE4EC"/>
<rect width="19.25" height="9" transform="matrix(-1 0 0 1 86.5713 43.4223)" stroke="#EDF2F6" stroke-width="0.895522"/>
<rect width="9.35" height="4.02" rx="1.79104" transform="matrix(-1 0 0 1 77.7706 46.4379)" fill="#DAE4EC"/>
<path d="M9.57129 52.4223H28.8213V61.4223H12.4532C11.4338 61.4223 10.9241 61.4223 10.5361 61.2208C10.2092 61.051 9.94265 60.7844 9.77282 60.4575C9.57129 60.0695 9.57129 59.5598 9.57129 58.5404V52.4223Z" stroke="#EDF2F6" stroke-width="0.895522"/>
<rect x="10.6707" y="55.4379" width="9" height="4.02" rx="1.79104" fill="#DAE4EC"/>
<rect width="19.25" height="9" transform="matrix(-1 0 0 1 48.0713 52.4223)" stroke="#EDF2F6" stroke-width="0.895522"/>
<rect width="9.35" height="4.02" rx="1.79104" transform="matrix(-1 0 0 1 40.2705 55.4379)" fill="#DAE4EC"/>
<rect width="19.25" height="9" transform="matrix(-1 0 0 1 67.3213 52.4223)" stroke="#EDF2F6" stroke-width="0.895522"/>
<rect width="11" height="4" rx="1.79104" transform="matrix(-1 0 0 1 60.0713 55.4223)" fill="#DAE4EC"/>
<path d="M86.5713 52.4223H67.3213V61.4223H83.6894C84.7088 61.4223 85.2185 61.4223 85.6064 61.2208C85.9334 61.051 86.1999 60.7844 86.3698 60.4575C86.5713 60.0695 86.5713 59.5598 86.5713 58.5404V52.4223Z" stroke="#EDF2F6" stroke-width="0.895522"/>
<path d="M77.7706 57.4485C77.7706 57.2446 77.7706 57.1427 77.7623 57.0568C77.68 56.2038 77.0048 55.5286 76.1517 55.4462C76.0659 55.4379 75.9639 55.4379 75.76 55.4379H70.4306C70.2273 55.4379 70.1256 55.4379 70.04 55.4462C69.1865 55.5284 68.5111 56.2039 68.4289 57.0573C68.4206 57.1429 68.4206 57.2446 68.4206 57.4479C68.4206 57.6513 68.4206 57.7529 68.4289 57.8386C68.5111 58.692 69.1865 59.3675 70.04 59.4497C70.1256 59.4579 70.2273 59.4579 70.4306 59.4579H75.7612C75.965 59.4579 76.0669 59.4579 76.1527 59.4496C77.0052 59.3673 77.68 58.6926 77.7623 57.84C77.7706 57.7542 77.7706 57.6523 77.7706 57.4485Z" fill="#DAE4EC"/>
<rect x="9.57129" y="66.4223" width="53" height="3" rx="1.5" fill="#DAE4EC"/>
<path fill-rule="evenodd" clip-rule="evenodd" d="M92.0432 4.27319C92.3629 3.12263 92.5369 1.91476 92.6976 0.742896C92.7315 0.490477 92.5761 0.252337 92.3508 0.229691C92.1257 0.188971 91.9155 0.365604 91.8821 0.599951C91.7272 1.73578 91.5623 2.90746 91.2548 4.00403C91.1882 4.23771 91.3104 4.4934 91.528 4.57012C91.7454 4.64685 91.9764 4.50686 92.0432 4.27319Z" fill="#D9D9D9"/>
<path fill-rule="evenodd" clip-rule="evenodd" d="M96.1721 7.86404C97.9436 6.03783 99.4967 3.97217 101.314 2.18305C101.483 2.02377 101.498 1.73481 101.347 1.55095C101.195 1.36709 100.934 1.34379 100.764 1.52113C98.9418 3.31015 97.3837 5.37572 95.6072 7.20182C95.4412 7.37925 95.433 7.66827 95.589 7.85222C95.7452 8.0181 96.0061 8.04147 96.1721 7.86404Z" fill="#D9D9D9"/>
<path fill-rule="evenodd" clip-rule="evenodd" d="M102.77 11.4873C101.777 11.5214 100.783 11.5554 99.7897 11.5894C99.5624 11.5848 99.3825 11.7982 99.3884 12.0515C99.3945 12.3047 99.5843 12.4892 99.8117 12.4938C100.807 12.4598 101.802 12.4258 102.797 12.3917C103.024 12.3783 103.203 12.1649 103.196 11.9117C103.188 11.6765 102.998 11.4738 102.77 11.4873Z" fill="#D9D9D9"/>
<rect x="71.0713" y="54.4223" width="32.2785" height="32.3736" rx="16.1392" fill="#F8F8FB"/>
<rect x="71.0713" y="54.4223" width="32.2785" height="32.3736" rx="16.1392" stroke="white" stroke-width="2"/>
<path d="M95.7264 77.3172L95.6506 77.2386L93.7925 79.0967L93.8358 79.1427L94.3288 79.633C94.6457 79.9499 95.3174 79.7901 95.832 79.2782C96.344 78.7635 96.5038 78.0918 96.1869 77.7776L95.7264 77.3172Z" fill="#BCCBDC"/>
<path d="M95.1941 76.7957L93.3361 78.6538L93.7911 79.1007L95.6492 77.2426L95.595 77.1912L95.1941 76.7957Z" fill="#F1DECF"/>
<path fill-rule="evenodd" clip-rule="evenodd" d="M92.5513 68.6623C92.5513 70.2306 92.0502 71.677 91.2024 72.8633L95.1949 76.7935L93.3368 78.6515L89.3173 74.6916C88.1688 75.4581 86.7929 75.9023 85.3113 75.9023C81.3134 75.9023 78.0713 72.6629 78.0713 68.6623C78.0713 64.6645 81.3134 61.4223 85.3113 61.4223C89.3119 61.4223 92.5513 64.6645 92.5513 68.6623ZM90.5009 68.6623C90.5009 65.8508 88.223 63.5702 85.4088 63.5702C82.5973 63.5702 80.3194 65.8508 80.3194 68.6623C80.3194 71.4738 82.5973 73.7544 85.4088 73.7544C88.223 73.7544 90.5009 71.4738 90.5009 68.6623Z" fill="#BCCBDC"/>
<circle cx="85.3854" cy="68.6903" r="5.81435" fill="white"/>
<path d="M86.1106 65.0173L82.5516 70.2318C82.4351 70.4054 82.4595 70.6548 82.6085 70.7937C82.6708 70.8536 82.7466 70.882 82.8224 70.882C82.9226 70.882 83.0256 70.8315 83.0933 70.7305L86.6469 65.516C86.7661 65.3424 86.7417 65.0899 86.5928 64.9542C86.4438 64.8153 86.2271 64.8437 86.1106 65.0173Z" fill="#F1DECF"/>
<path d="M87.601 66.7552L84.0447 71.9666C83.9255 72.1402 83.9526 72.3927 84.1015 72.5316C84.1638 72.5884 84.2397 72.6168 84.3155 72.6168C84.4157 72.6168 84.516 72.5663 84.5837 72.4653L88.14 67.254C88.2592 67.0804 88.2348 66.8278 88.0858 66.689C87.9369 66.5532 87.7202 66.5816 87.601 66.7552Z" fill="#F1DECF"/>
</svg>
