<svg width="20" height="20" viewBox="0 0 20 20" fill="none" xmlns="http://www.w3.org/2000/svg">
<mask id="mask0_78_15421" style="mask-type:alpha" maskUnits="userSpaceOnUse" x="0" y="0" width="20" height="20">
<rect width="20" height="20" fill="#D9D9D9"/>
</mask>
<g mask="url(#mask0_78_15421)">
<path d="M5.83329 14.1667C4.68051 14.1667 3.69788 13.7604 2.88538 12.9479C2.07288 12.1354 1.66663 11.1528 1.66663 9.99999C1.66663 8.84722 2.07288 7.86458 2.88538 7.05208C3.69788 6.23958 4.68051 5.83333 5.83329 5.83333H8.33329C8.5694 5.83333 8.76732 5.91319 8.92704 6.07291C9.08677 6.23263 9.16663 6.43055 9.16663 6.66666C9.16663 6.90277 9.08677 7.10069 8.92704 7.26041C8.76732 7.42013 8.5694 7.49999 8.33329 7.49999H5.83329C5.13885 7.49999 4.54857 7.74305 4.06246 8.22916C3.57635 8.71527 3.33329 9.30555 3.33329 9.99999C3.33329 10.6944 3.57635 11.2847 4.06246 11.7708C4.54857 12.2569 5.13885 12.5 5.83329 12.5H8.33329C8.5694 12.5 8.76732 12.5799 8.92704 12.7396C9.08677 12.8993 9.16663 13.0972 9.16663 13.3333C9.16663 13.5694 9.08677 13.7674 8.92704 13.9271C8.76732 14.0868 8.5694 14.1667 8.33329 14.1667H5.83329ZM7.49996 10.8333C7.26385 10.8333 7.06593 10.7535 6.90621 10.5937C6.74649 10.434 6.66663 10.2361 6.66663 9.99999C6.66663 9.76388 6.74649 9.56597 6.90621 9.40624C7.06593 9.24652 7.26385 9.16666 7.49996 9.16666H12.5C12.7361 9.16666 12.934 9.24652 13.0937 9.40624C13.2534 9.56597 13.3333 9.76388 13.3333 9.99999C13.3333 10.2361 13.2534 10.434 13.0937 10.5937C12.934 10.7535 12.7361 10.8333 12.5 10.8333H7.49996ZM11.6666 14.1667C11.4305 14.1667 11.2326 14.0868 11.0729 13.9271C10.9132 13.7674 10.8333 13.5694 10.8333 13.3333C10.8333 13.0972 10.9132 12.8993 11.0729 12.7396C11.2326 12.5799 11.4305 12.5 11.6666 12.5H14.1666C14.8611 12.5 15.4513 12.2569 15.9375 11.7708C16.4236 11.2847 16.6666 10.6944 16.6666 9.99999C16.6666 9.30555 16.4236 8.71527 15.9375 8.22916C15.4513 7.74305 14.8611 7.49999 14.1666 7.49999H11.6666C11.4305 7.49999 11.2326 7.42013 11.0729 7.26041C10.9132 7.10069 10.8333 6.90277 10.8333 6.66666C10.8333 6.43055 10.9132 6.23263 11.0729 6.07291C11.2326 5.91319 11.4305 5.83333 11.6666 5.83333H14.1666C15.3194 5.83333 16.302 6.23958 17.1145 7.05208C17.927 7.86458 18.3333 8.84722 18.3333 9.99999C18.3333 11.1528 17.927 12.1354 17.1145 12.9479C16.302 13.7604 15.3194 14.1667 14.1666 14.1667H11.6666Z" fill="#1C1B1F"/>
</g>
</svg>
